<svg xmlns="http://www.w3.org/2000/svg" width="1080" height="1080" viewBox="0 0 1080 1080" version="1.1"><path d="M 639 68.007 C 645.757 69.588, 649.755 71.365, 658.493 76.670 C 669.935 83.616, 674.163 86.797, 670.453 85.670 C 667.156 84.668, 647.711 80.203, 644 79.596 C 638.385 78.678, 644.004 80.428, 655 83.022 C 667.759 86.033, 693.100 93.586, 698.302 95.929 C 700.611 96.969, 705.650 99.033, 709.500 100.517 C 735.429 110.506, 749.179 117.097, 774.900 131.865 C 811.788 153.046, 846.686 180.114, 877.401 211.371 C 884.497 218.592, 889.222 223.192, 887.901 221.594 C 885.664 218.887, 885.910 218.963, 891.500 222.698 C 894.800 224.904, 900.650 228.390, 904.500 230.445 C 908.350 232.501, 913.025 235.604, 914.889 237.341 C 921.283 243.301, 903.900 222.501, 891.200 208.996 C 850.611 165.837, 803.819 131.319, 751.393 105.862 C 728.430 94.711, 716.563 89.809, 695.977 82.970 C 676.855 76.618, 642.763 67.425, 635.042 66.539 C 632.544 66.252, 634.325 66.913, 639 68.007 M 506 115.063 C 332.949 130.160, 189.307 243.596, 135.061 408 C 126.759 433.164, 119.452 467.145, 115.817 497.500 C 113.754 514.728, 114.058 568.822, 116.320 587 C 130.165 698.278, 181.106 793.617, 264.409 864.156 C 362.475 947.195, 491.410 981.551, 618 958.372 C 711.112 941.323, 798.640 891.188, 860.448 819.500 C 911.264 760.562, 944.087 692.705, 958.400 617 C 975.681 525.595, 962.158 431.725, 919.575 347.500 C 854.845 219.471, 730.408 133.270, 586 116.423 C 569.973 114.553, 521.323 113.726, 506 115.063 M 508.019 121.087 C 421.621 127.700, 339.527 161.004, 272.508 216.630 C 161.781 308.532, 105.766 450.095, 123.584 593 C 138.221 710.403, 204.549 818.658, 303.096 885.984 C 335.702 908.259, 375.197 927.755, 410.340 938.923 C 491.375 964.674, 573.650 965.864, 656.619 942.486 C 767.910 911.127, 864.736 829.902, 916.473 724.500 C 938.245 680.146, 950.077 639.401, 956.692 586 C 958.102 574.621, 958.480 564.397, 958.448 538.500 C 958.406 503.661, 957.129 488.509, 951.945 461.324 C 935.217 373.608, 890.042 292.281, 824.500 231.889 C 753.965 166.896, 664.303 128.136, 568 121.005 C 552.596 119.864, 523.475 119.904, 508.019 121.087 M 554.920 234.950 C 550.751 236.009, 544.700 238.042, 541.474 239.469 C 538.247 240.896, 535.020 241.838, 534.303 241.563 C 532.455 240.853, 525.551 249.949, 520.869 259.261 C 518.699 263.576, 515.704 271.470, 514.212 276.803 L 511.500 286.500 511.500 413.500 C 511.500 533.788, 511.596 540.749, 513.315 545.203 C 517.059 554.908, 526.737 559.580, 541.488 558.805 C 554.815 558.106, 562.424 553.003, 564.906 543.099 C 565.403 541.120, 566.106 484.245, 566.470 416.711 C 567.188 283.318, 567.009 287.165, 572.726 281.832 C 577.402 277.470, 579.990 276.637, 588.329 276.808 C 605.420 277.159, 650.226 283.380, 676.893 289.105 L 687.285 291.336 686.668 310.418 C 686.328 320.913, 685.274 378.226, 684.326 437.781 C 682.466 554.590, 682.392 551.892, 687.620 558.746 C 692.034 564.533, 704.067 569, 715.241 569 C 725.652 569, 733.857 564.015, 735.855 556.476 C 736.489 554.080, 737.939 503.823, 739.503 430.034 C 740.930 362.678, 742.284 307.383, 742.511 307.156 C 743.173 306.494, 776.148 318.745, 792.451 325.709 C 819.588 337.303, 837.286 346.468, 841.462 351.089 C 846.523 356.692, 849.875 364.352, 850.896 372.647 C 851.382 376.600, 851.144 413.567, 850.334 460 C 849.561 504.275, 849.058 549.540, 849.215 560.589 L 849.500 580.678 852.331 584.760 C 858.047 593.001, 870.125 598.262, 883.669 598.410 C 892.455 598.507, 896.166 596.938, 898.624 592.091 C 899.415 590.529, 899.960 562.345, 900.466 496.687 C 901.110 413.141, 901.016 402.470, 899.557 393.543 C 896.919 377.401, 889.812 358.426, 881.589 345.572 C 876.713 337.950, 859.854 320.627, 855.175 318.433 C 853.154 317.485, 847.119 314.088, 841.765 310.885 C 797.991 284.694, 736.693 260.020, 685.492 247.980 C 645.075 238.476, 613.103 233.879, 584 233.388 C 565.285 233.072, 561.518 233.275, 554.920 234.950 M 899.050 234.500 C 899.072 235.050, 901.159 237.750, 903.689 240.500 C 906.219 243.250, 907.329 244.150, 906.156 242.500 C 902.571 237.457, 899.008 233.445, 899.050 234.500 M 918.727 242.250 C 921.620 245.971, 929.336 255.570, 929.779 256 C 930.991 257.175, 928.172 252.879, 924 247.192 C 921.525 243.818, 919.107 241.045, 918.628 241.029 C 918.148 241.013, 918.192 241.563, 918.727 242.250 M 408.500 245.562 C 404.100 246.379, 393.721 248.824, 385.436 250.995 C 337.777 263.482, 287.399 284.132, 245 308.560 C 237.575 312.837, 229.925 317.162, 228 318.169 C 222.676 320.955, 212.428 330.492, 205.809 338.821 C 194.772 352.709, 185.337 375.467, 182.431 395.207 C 181.115 404.144, 181.020 417.783, 181.708 498.732 L 182.500 591.963 185.772 595.232 C 188.970 598.427, 189.238 598.500, 197.772 598.482 C 213.120 598.449, 225.846 592.427, 230.765 582.869 C 233.126 578.279, 233.138 578.092, 233.043 545.719 L 232.947 513.182 240.723 510.652 C 291.091 494.266, 351.138 480.946, 408.218 473.497 C 418.733 472.125, 427.479 471.145, 427.654 471.320 C 427.828 471.495, 428.233 487.357, 428.552 506.569 C 428.871 525.781, 429.604 543.664, 430.180 546.308 C 431.354 551.695, 434.743 556.299, 439.253 558.631 C 446.529 562.393, 463.957 562.103, 471.826 558.089 C 477.020 555.439, 481.669 549.942, 483.049 544.819 C 484.412 539.754, 483.453 327.200, 481.961 304 C 481.397 295.212, 480.217 286.546, 478.967 282 C 474.520 265.826, 463.359 248.416, 457.307 248.214 C 455.763 248.162, 452.475 247.349, 450 246.407 C 443.719 244.017, 419.471 243.523, 408.500 245.562 M 383.500 294.443 C 343.548 304.679, 312.159 315.563, 278.014 331.020 C 246.492 345.290, 238.967 350.217, 233.430 360.212 L 230.500 365.500 230.871 404 C 231.075 425.175, 231.525 449.475, 231.871 458 L 232.500 473.500 235.134 473.805 C 236.583 473.973, 244.908 471.571, 253.634 468.468 C 297.922 452.717, 353.388 438.947, 404.308 431.061 C 422.062 428.312, 426.708 426.954, 425.430 424.887 C 425.129 424.399, 425.359 424, 425.941 424 C 428.176 424, 426.346 308.287, 423.988 300.523 C 423.324 298.335, 421.083 294.847, 419.008 292.773 C 415.568 289.333, 414.761 289.003, 409.868 289.031 C 406.741 289.050, 395.734 291.309, 383.500 294.443 M 70.525 426.180 C 62.027 463.480, 57.020 500.706, 57.006 526.685 C 56.999 537.869, 57.883 541.511, 60.831 542.446 C 61.901 542.786, 63.952 544.153, 65.389 545.484 C 67.665 547.594, 68.022 548.775, 68.171 554.702 C 68.265 558.441, 68.672 548.900, 69.074 533.500 C 69.739 508.032, 71.076 490.737, 73.981 470 C 75.032 462.503, 78.675 440.452, 79.549 436.302 C 79.911 434.584, 79.051 433.443, 75.607 431.074 C 71.216 428.052, 71.206 428.031, 72.136 423.890 C 72.649 421.605, 72.872 419.539, 72.631 419.298 C 72.390 419.056, 71.442 422.153, 70.525 426.180 M 834.500 630.637 C 817.109 632.530, 766.697 637.226, 750 638.508 C 727.822 640.210, 716.641 641.988, 708.880 645.047 C 706.155 646.121, 702.902 647, 701.650 647 C 695.872 647, 685.934 663.686, 681.410 680.985 C 678.889 690.622, 663 814.101, 663 824.054 C 663 839.871, 667.577 852.224, 674.793 855.883 C 685.736 861.431, 700.655 859.109, 742.500 845.346 C 773.546 835.135, 805.354 821.749, 817.978 813.583 C 826.357 808.163, 834.993 800.306, 839.065 794.397 C 843.440 788.050, 850.561 773.240, 852.902 765.619 C 854.065 761.834, 856.603 749.234, 858.542 737.619 C 860.481 726.003, 864.570 702.775, 867.628 686 C 873.990 651.107, 874.148 646.581, 869.337 637.173 C 866.599 631.821, 866.265 631.540, 862.479 631.414 C 860.291 631.342, 854 631.039, 848.500 630.742 C 843 630.444, 836.700 630.397, 834.500 630.637 M 277.500 637.605 C 274.750 638.389, 271.493 638.862, 270.262 638.656 C 268.598 638.378, 266.726 639.654, 262.970 643.625 C 253.558 653.577, 252.497 656.980, 238.524 722 C 230.763 758.116, 226.178 781.526, 226.541 783.183 C 227.462 787.384, 234.527 794.621, 240.615 797.600 C 246.933 800.691, 254.124 801.330, 256.379 799 C 257.233 798.118, 262.607 775.038, 269.419 743 C 284.978 669.818, 284.211 672.657, 290.432 665.263 C 295.181 659.619, 296.237 659.542, 322.622 662.924 C 335.755 664.607, 358.425 667.115, 373 668.497 C 387.575 669.879, 400.405 671.214, 401.510 671.464 C 406.292 672.544, 409.555 685.030, 407.971 696.184 C 404.548 720.278, 399.556 740.752, 396.002 745.270 C 394.901 746.670, 394 748.297, 394 748.885 C 394 751.465, 389.048 753.264, 383.845 752.574 C 375.020 751.403, 343.209 745.036, 326 740.996 C 315.437 738.516, 306.464 737.020, 301.063 736.838 L 292.626 736.553 291.358 739.526 C 289.567 743.727, 289.709 749.699, 291.679 753.034 C 292.603 754.598, 295.467 757.025, 298.044 758.427 C 307.043 763.325, 366.613 778.567, 386.129 780.966 C 396.395 782.227, 406.014 781.140, 412.541 777.980 C 421.022 773.875, 430.407 760.328, 434.868 745.752 C 438.845 732.760, 445.344 692.486, 445.397 680.500 C 445.479 662.291, 439.668 647.973, 431.999 647.491 C 430.075 647.370, 426.025 646.519, 423 645.601 C 419.327 644.485, 407.532 643.273, 387.500 641.951 C 371 640.863, 346.658 639.078, 333.408 637.986 C 305.339 635.672, 284.768 635.532, 277.500 637.605 M 540 646.979 L 499.500 647.532 492.169 650.342 C 488.137 651.887, 484.199 652.906, 483.418 652.607 C 481.785 651.980, 475.781 659.144, 471.137 667.260 C 465.329 677.412, 462.381 689.069, 455.522 729 C 451.884 750.175, 445.554 786.319, 441.454 809.319 C 437.354 832.320, 434 853.186, 434 855.687 C 434 859.617, 434.515 860.750, 437.786 864.022 C 446.431 872.666, 463.556 871.512, 468.185 861.972 C 469.181 859.919, 475.211 826.415, 482.938 780 C 490.682 733.478, 496.878 699.056, 498.147 695.502 C 500.610 688.603, 504.095 682.743, 507.749 679.357 L 510.292 677 541.396 676.892 C 558.503 676.832, 582.400 676.473, 594.500 676.094 C 606.600 675.715, 617.229 675.749, 618.120 676.168 C 621.158 677.599, 623.356 684.135, 623.780 693 C 624.215 702.088, 620.222 734.786, 617.430 745 C 615.181 753.227, 611.068 760.915, 608.106 762.430 C 603.474 764.800, 597.155 765.261, 557.500 766.122 C 536.050 766.588, 516.800 767.134, 514.723 767.335 C 509.988 767.795, 506.305 771.153, 504.928 776.269 C 503.635 781.068, 504.448 785.362, 507.561 790.183 C 511.211 795.835, 549.911 827.806, 582 851.679 C 612.019 874.012, 614.525 875.358, 621.947 873.134 C 630.382 870.607, 638.890 854.667, 636.624 845.637 C 635.670 841.838, 631.135 837, 628.526 837 C 626.464 837, 620.358 832.894, 599.909 817.756 C 586.134 807.558, 581.167 803.539, 581.558 802.907 C 581.782 802.544, 580.093 800.954, 577.805 799.374 L 573.646 796.500 579.573 795.859 C 582.833 795.506, 588.479 795.168, 592.119 795.109 C 602.972 794.931, 615.838 792.253, 623.730 788.529 C 632.446 784.416, 637.985 778.973, 643.701 768.902 C 650.929 756.168, 653.498 746.485, 657.450 717.097 C 661.349 688.096, 661.784 677.313, 659.463 667.197 C 657.817 660.023, 653.454 651.130, 651 649.945 C 650.175 649.546, 645.675 648.493, 641 647.605 C 631.895 645.876, 624.284 645.829, 540 646.979 M 825.500 654.550 C 823.518 655.328, 768.033 662.995, 747.319 665.353 C 723.827 668.028, 721.627 668.818, 718.125 675.834 C 715.100 681.894, 714.398 686.183, 706.480 747.001 C 698.223 810.426, 698.241 810.053, 702.972 820.438 C 706.238 827.608, 706.911 827.688, 724.282 822.981 C 751.126 815.707, 794.461 800.887, 805.796 795.104 C 808.043 793.958, 810.471 791.950, 811.191 790.643 C 811.911 789.335, 813.963 785.843, 815.752 782.883 C 821.556 773.273, 822.784 768.090, 829.506 724.794 C 840.082 656.669, 839.437 661.982, 837.653 657.711 C 836.160 654.140, 835.921 654.003, 831.301 654.079 C 828.660 654.122, 826.050 654.334, 825.500 654.550 M 830.500 910.234 C 813.793 923.774, 785.926 941.679, 757.513 957.131 C 743.106 964.965, 738.310 968, 740.334 968 C 741.879 968, 743.818 968.675, 744.643 969.500 C 745.468 970.325, 747.011 971, 748.071 971 C 750.642 971, 750.510 972.391, 747.750 974.368 C 744.281 976.853, 760.253 969.562, 772 963.299 C 784.825 956.460, 800.331 946.958, 813 938.174 C 824.105 930.474, 848.157 911.752, 850.135 909.268 C 850.990 908.194, 850.422 908.384, 848.616 909.776 L 845.733 911.998 842.116 909.846 C 840.127 908.662, 838.050 907.171, 837.500 906.533 C 836.770 905.685, 834.880 906.685, 830.500 910.234" stroke="none" fill="#9d140c" fill-rule="evenodd"/><path d="M 499 5.167 C 443.222 10.993, 401.110 20.095, 358.436 35.547 C 307.716 53.913, 261.972 78.741, 217.500 112.043 C 172.217 145.952, 130.038 190.065, 97.543 237.500 C 78.023 265.994, 54.984 308.931, 43.079 339 C 23.286 388.994, 12.340 433.828, 6.337 489.500 C 3.880 512.290, 3.887 567.103, 6.350 590 C 12.446 646.662, 22.772 688.948, 43.144 740.682 C 47.516 751.782, 51.409 761.007, 51.796 761.182 C 52.183 761.357, 55.512 767.575, 59.193 775 C 70.073 796.942, 82.410 818.350, 94.841 836.856 C 105.778 853.136, 124.769 878.433, 132.894 887.543 C 134.877 889.766, 139.875 895.381, 144 900.020 C 154.364 911.677, 180.461 937.019, 192.496 947.115 C 197.994 951.727, 203.394 956.338, 204.496 957.363 C 209.418 961.938, 230.989 978.875, 235.641 981.817 C 238.468 983.605, 241.865 986.072, 243.188 987.299 C 246.715 990.567, 254.257 996, 255.267 996 C 255.747 996, 258.021 997.293, 260.320 998.874 C 265.765 1002.617, 284.845 1014.354, 292.500 1018.670 C 301.526 1023.758, 331.290 1038, 332.899 1038 C 333.285 1038, 334.096 1038.496, 334.702 1039.102 C 336.019 1040.419, 349.724 1046.192, 359.500 1049.548 C 363.350 1050.870, 371 1053.551, 376.500 1055.507 C 382 1057.462, 388.300 1059.456, 390.500 1059.938 C 396.737 1061.306, 409.344 1065.052, 410.478 1065.876 C 412.754 1067.530, 441.882 1073.678, 466.500 1077.702 C 476.297 1079.303, 484.718 1079.500, 543.500 1079.500 C 607.863 1079.500, 609.847 1079.442, 623.500 1077.178 C 646.374 1073.385, 670.802 1068.134, 675.500 1066 C 676.600 1065.501, 679.525 1064.572, 682 1063.936 C 704.404 1058.181, 740.437 1045.349, 754.036 1038.283 C 757.081 1036.700, 762.256 1034.321, 765.536 1032.996 C 773.876 1029.627, 793.209 1019.511, 801.197 1014.337 C 804.880 1011.952, 808.160 1010, 808.486 1010 C 808.812 1010, 811.418 1008.425, 814.276 1006.500 C 817.135 1004.575, 819.856 1003, 820.324 1003 C 823.922 1003, 876.213 963.787, 887 953 C 887.275 952.725, 889.750 950.516, 892.500 948.090 C 899.674 941.763, 927.998 913.878, 928.011 913.130 C 928.017 912.783, 929.704 910.693, 931.761 908.484 C 946.940 892.180, 964.825 869.194, 977.656 849.500 C 980.164 845.650, 982.994 841.375, 983.945 840 C 984.897 838.625, 987.160 834.800, 988.974 831.500 C 990.789 828.200, 994.608 821.900, 997.461 817.500 C 1012.063 794.982, 1031.051 755.101, 1043.644 720.500 C 1071.511 643.936, 1081.179 557.330, 1071.014 475.345 C 1068.960 458.785, 1065.116 436.167, 1062.542 425.500 C 1053.791 389.238, 1044.769 359.754, 1037.364 343.220 C 1036.064 340.317, 1035 337.749, 1035 337.515 C 1035 336.494, 1025.743 315.548, 1021.275 306.459 C 1011.616 286.810, 995.953 259.077, 987.877 247.326 C 986.299 245.030, 984.600 242.079, 984.102 240.768 C 982.789 237.314, 957.897 204.453, 946.404 191 C 932.023 174.166, 900.721 143.289, 883.500 128.949 C 825.049 80.276, 758.264 44.944, 686.445 24.698 C 652.789 15.211, 626.587 9.994, 598 7.091 C 592.225 6.505, 583.148 5.569, 577.830 5.012 C 566.270 3.802, 511.026 3.910, 499 5.167 M 639 68.007 C 645.757 69.588, 649.755 71.365, 658.493 76.670 C 669.935 83.616, 674.163 86.797, 670.453 85.670 C 667.156 84.668, 647.711 80.203, 644 79.596 C 638.385 78.678, 644.004 80.428, 655 83.022 C 667.759 86.033, 693.100 93.586, 698.302 95.929 C 700.611 96.969, 705.650 99.033, 709.500 100.517 C 735.429 110.506, 749.179 117.097, 774.900 131.865 C 811.788 153.046, 846.686 180.114, 877.401 211.371 C 884.497 218.592, 889.222 223.192, 887.901 221.594 C 885.664 218.887, 885.910 218.963, 891.500 222.698 C 894.800 224.904, 900.650 228.390, 904.500 230.445 C 908.350 232.501, 913.025 235.604, 914.889 237.341 C 921.283 243.301, 903.900 222.501, 891.200 208.996 C 850.611 165.837, 803.819 131.319, 751.393 105.862 C 728.430 94.711, 716.563 89.809, 695.977 82.970 C 676.855 76.618, 642.763 67.425, 635.042 66.539 C 632.544 66.252, 634.325 66.913, 639 68.007 M 506 115.063 C 332.949 130.160, 189.307 243.596, 135.061 408 C 126.759 433.164, 119.452 467.145, 115.817 497.500 C 113.754 514.728, 114.058 568.822, 116.320 587 C 130.165 698.278, 181.106 793.617, 264.409 864.156 C 362.475 947.195, 491.410 981.551, 618 958.372 C 711.112 941.323, 798.640 891.188, 860.448 819.500 C 911.264 760.562, 944.087 692.705, 958.400 617 C 975.681 525.595, 962.158 431.725, 919.575 347.500 C 854.845 219.471, 730.408 133.270, 586 116.423 C 569.973 114.553, 521.323 113.726, 506 115.063 M 508.019 121.087 C 421.621 127.700, 339.527 161.004, 272.508 216.630 C 161.781 308.532, 105.766 450.095, 123.584 593 C 138.221 710.403, 204.549 818.658, 303.096 885.984 C 335.702 908.259, 375.197 927.755, 410.340 938.923 C 491.375 964.674, 573.650 965.864, 656.619 942.486 C 767.910 911.127, 864.736 829.902, 916.473 724.500 C 938.245 680.146, 950.077 639.401, 956.692 586 C 958.102 574.621, 958.480 564.397, 958.448 538.500 C 958.406 503.661, 957.129 488.509, 951.945 461.324 C 935.217 373.608, 890.042 292.281, 824.500 231.889 C 753.965 166.896, 664.303 128.136, 568 121.005 C 552.596 119.864, 523.475 119.904, 508.019 121.087 M 554.920 234.950 C 550.751 236.009, 544.700 238.042, 541.474 239.469 C 538.247 240.896, 535.020 241.838, 534.303 241.563 C 532.455 240.853, 525.551 249.949, 520.869 259.261 C 518.699 263.576, 515.704 271.470, 514.212 276.803 L 511.500 286.500 511.500 413.500 C 511.500 533.788, 511.596 540.749, 513.315 545.203 C 517.059 554.908, 526.737 559.580, 541.488 558.805 C 554.815 558.106, 562.424 553.003, 564.906 543.099 C 565.403 541.120, 566.106 484.245, 566.470 416.711 C 567.188 283.318, 567.009 287.165, 572.726 281.832 C 577.402 277.470, 579.990 276.637, 588.329 276.808 C 605.420 277.159, 650.226 283.380, 676.893 289.105 L 687.285 291.336 686.668 310.418 C 686.328 320.913, 685.274 378.226, 684.326 437.781 C 682.466 554.590, 682.392 551.892, 687.620 558.746 C 692.034 564.533, 704.067 569, 715.241 569 C 725.652 569, 733.857 564.015, 735.855 556.476 C 736.489 554.080, 737.939 503.823, 739.503 430.034 C 740.930 362.678, 742.284 307.383, 742.511 307.156 C 743.173 306.494, 776.148 318.745, 792.451 325.709 C 819.588 337.303, 837.286 346.468, 841.462 351.089 C 846.523 356.692, 849.875 364.352, 850.896 372.647 C 851.382 376.600, 851.144 413.567, 850.334 460 C 849.561 504.275, 849.058 549.540, 849.215 560.589 L 849.500 580.678 852.331 584.760 C 858.047 593.001, 870.125 598.262, 883.669 598.410 C 892.455 598.507, 896.166 596.938, 898.624 592.091 C 899.415 590.529, 899.960 562.345, 900.466 496.687 C 901.110 413.141, 901.016 402.470, 899.557 393.543 C 896.919 377.401, 889.812 358.426, 881.589 345.572 C 876.713 337.950, 859.854 320.627, 855.175 318.433 C 853.154 317.485, 847.119 314.088, 841.765 310.885 C 797.991 284.694, 736.693 260.020, 685.492 247.980 C 645.075 238.476, 613.103 233.879, 584 233.388 C 565.285 233.072, 561.518 233.275, 554.920 234.950 M 899.050 234.500 C 899.072 235.050, 901.159 237.750, 903.689 240.500 C 906.219 243.250, 907.329 244.150, 906.156 242.500 C 902.571 237.457, 899.008 233.445, 899.050 234.500 M 918.727 242.250 C 921.620 245.971, 929.336 255.570, 929.779 256 C 930.991 257.175, 928.172 252.879, 924 247.192 C 921.525 243.818, 919.107 241.045, 918.628 241.029 C 918.148 241.013, 918.192 241.563, 918.727 242.250 M 408.500 245.562 C 404.100 246.379, 393.721 248.824, 385.436 250.995 C 337.777 263.482, 287.399 284.132, 245 308.560 C 237.575 312.837, 229.925 317.162, 228 318.169 C 222.676 320.955, 212.428 330.492, 205.809 338.821 C 194.772 352.709, 185.337 375.467, 182.431 395.207 C 181.115 404.144, 181.020 417.783, 181.708 498.732 L 182.500 591.963 185.772 595.232 C 188.970 598.427, 189.238 598.500, 197.772 598.482 C 213.120 598.449, 225.846 592.427, 230.765 582.869 C 233.126 578.279, 233.138 578.092, 233.043 545.719 L 232.947 513.182 240.723 510.652 C 291.091 494.266, 351.138 480.946, 408.218 473.497 C 418.733 472.125, 427.479 471.145, 427.654 471.320 C 427.828 471.495, 428.233 487.357, 428.552 506.569 C 428.871 525.781, 429.604 543.664, 430.180 546.308 C 431.354 551.695, 434.743 556.299, 439.253 558.631 C 446.529 562.393, 463.957 562.103, 471.826 558.089 C 477.020 555.439, 481.669 549.942, 483.049 544.819 C 484.412 539.754, 483.453 327.200, 481.961 304 C 481.397 295.212, 480.217 286.546, 478.967 282 C 474.520 265.826, 463.359 248.416, 457.307 248.214 C 455.763 248.162, 452.475 247.349, 450 246.407 C 443.719 244.017, 419.471 243.523, 408.500 245.562 M 383.500 294.443 C 343.548 304.679, 312.159 315.563, 278.014 331.020 C 246.492 345.290, 238.967 350.217, 233.430 360.212 L 230.500 365.500 230.871 404 C 231.075 425.175, 231.525 449.475, 231.871 458 L 232.500 473.500 235.134 473.805 C 236.583 473.973, 244.908 471.571, 253.634 468.468 C 297.922 452.717, 353.388 438.947, 404.308 431.061 C 422.062 428.312, 426.708 426.954, 425.430 424.887 C 425.129 424.399, 425.359 424, 425.941 424 C 428.176 424, 426.346 308.287, 423.988 300.523 C 423.324 298.335, 421.083 294.847, 419.008 292.773 C 415.568 289.333, 414.761 289.003, 409.868 289.031 C 406.741 289.050, 395.734 291.309, 383.500 294.443 M 70.525 426.180 C 62.027 463.480, 57.020 500.706, 57.006 526.685 C 56.999 537.869, 57.883 541.511, 60.831 542.446 C 61.901 542.786, 63.952 544.153, 65.389 545.484 C 67.665 547.594, 68.022 548.775, 68.171 554.702 C 68.265 558.441, 68.672 548.900, 69.074 533.500 C 69.739 508.032, 71.076 490.737, 73.981 470 C 75.032 462.503, 78.675 440.452, 79.549 436.302 C 79.911 434.584, 79.051 433.443, 75.607 431.074 C 71.216 428.052, 71.206 428.031, 72.136 423.890 C 72.649 421.605, 72.872 419.539, 72.631 419.298 C 72.390 419.056, 71.442 422.153, 70.525 426.180 M 834.500 630.637 C 817.109 632.530, 766.697 637.226, 750 638.508 C 727.822 640.210, 716.641 641.988, 708.880 645.047 C 706.155 646.121, 702.902 647, 701.650 647 C 695.872 647, 685.934 663.686, 681.410 680.985 C 678.889 690.622, 663 814.101, 663 824.054 C 663 839.871, 667.577 852.224, 674.793 855.883 C 685.736 861.431, 700.655 859.109, 742.500 845.346 C 773.546 835.135, 805.354 821.749, 817.978 813.583 C 826.357 808.163, 834.993 800.306, 839.065 794.397 C 843.440 788.050, 850.561 773.240, 852.902 765.619 C 854.065 761.834, 856.603 749.234, 858.542 737.619 C 860.481 726.003, 864.570 702.775, 867.628 686 C 873.990 651.107, 874.148 646.581, 869.337 637.173 C 866.599 631.821, 866.265 631.540, 862.479 631.414 C 860.291 631.342, 854 631.039, 848.500 630.742 C 843 630.444, 836.700 630.397, 834.500 630.637 M 277.500 637.605 C 274.750 638.389, 271.493 638.862, 270.262 638.656 C 268.598 638.378, 266.726 639.654, 262.970 643.625 C 253.558 653.577, 252.497 656.980, 238.524 722 C 230.763 758.116, 226.178 781.526, 226.541 783.183 C 227.462 787.384, 234.527 794.621, 240.615 797.600 C 246.933 800.691, 254.124 801.330, 256.379 799 C 257.233 798.118, 262.607 775.038, 269.419 743 C 284.978 669.818, 284.211 672.657, 290.432 665.263 C 295.181 659.619, 296.237 659.542, 322.622 662.924 C 335.755 664.607, 358.425 667.115, 373 668.497 C 387.575 669.879, 400.405 671.214, 401.510 671.464 C 406.292 672.544, 409.555 685.030, 407.971 696.184 C 404.548 720.278, 399.556 740.752, 396.002 745.270 C 394.901 746.670, 394 748.297, 394 748.885 C 394 751.465, 389.048 753.264, 383.845 752.574 C 375.020 751.403, 343.209 745.036, 326 740.996 C 315.437 738.516, 306.464 737.020, 301.063 736.838 L 292.626 736.553 291.358 739.526 C 289.567 743.727, 289.709 749.699, 291.679 753.034 C 292.603 754.598, 295.467 757.025, 298.044 758.427 C 307.043 763.325, 366.613 778.567, 386.129 780.966 C 396.395 782.227, 406.014 781.140, 412.541 777.980 C 421.022 773.875, 430.407 760.328, 434.868 745.752 C 438.845 732.760, 445.344 692.486, 445.397 680.500 C 445.479 662.291, 439.668 647.973, 431.999 647.491 C 430.075 647.370, 426.025 646.519, 423 645.601 C 419.327 644.485, 407.532 643.273, 387.500 641.951 C 371 640.863, 346.658 639.078, 333.408 637.986 C 305.339 635.672, 284.768 635.532, 277.500 637.605 M 540 646.979 L 499.500 647.532 492.169 650.342 C 488.137 651.887, 484.199 652.906, 483.418 652.607 C 481.785 651.980, 475.781 659.144, 471.137 667.260 C 465.329 677.412, 462.381 689.069, 455.522 729 C 451.884 750.175, 445.554 786.319, 441.454 809.319 C 437.354 832.320, 434 853.186, 434 855.687 C 434 859.617, 434.515 860.750, 437.786 864.022 C 446.431 872.666, 463.556 871.512, 468.185 861.972 C 469.181 859.919, 475.211 826.415, 482.938 780 C 490.682 733.478, 496.878 699.056, 498.147 695.502 C 500.610 688.603, 504.095 682.743, 507.749 679.357 L 510.292 677 541.396 676.892 C 558.503 676.832, 582.400 676.473, 594.500 676.094 C 606.600 675.715, 617.229 675.749, 618.120 676.168 C 621.158 677.599, 623.356 684.135, 623.780 693 C 624.215 702.088, 620.222 734.786, 617.430 745 C 615.181 753.227, 611.068 760.915, 608.106 762.430 C 603.474 764.800, 597.155 765.261, 557.500 766.122 C 536.050 766.588, 516.800 767.134, 514.723 767.335 C 509.988 767.795, 506.305 771.153, 504.928 776.269 C 503.635 781.068, 504.448 785.362, 507.561 790.183 C 511.211 795.835, 549.911 827.806, 582 851.679 C 612.019 874.012, 614.525 875.358, 621.947 873.134 C 630.382 870.607, 638.890 854.667, 636.624 845.637 C 635.670 841.838, 631.135 837, 628.526 837 C 626.464 837, 620.358 832.894, 599.909 817.756 C 586.134 807.558, 581.167 803.539, 581.558 802.907 C 581.782 802.544, 580.093 800.954, 577.805 799.374 L 573.646 796.500 579.573 795.859 C 582.833 795.506, 588.479 795.168, 592.119 795.109 C 602.972 794.931, 615.838 792.253, 623.730 788.529 C 632.446 784.416, 637.985 778.973, 643.701 768.902 C 650.929 756.168, 653.498 746.485, 657.450 717.097 C 661.349 688.096, 661.784 677.313, 659.463 667.197 C 657.817 660.023, 653.454 651.130, 651 649.945 C 650.175 649.546, 645.675 648.493, 641 647.605 C 631.895 645.876, 624.284 645.829, 540 646.979 M 825.500 654.550 C 823.518 655.328, 768.033 662.995, 747.319 665.353 C 723.827 668.028, 721.627 668.818, 718.125 675.834 C 715.100 681.894, 714.398 686.183, 706.480 747.001 C 698.223 810.426, 698.241 810.053, 702.972 820.438 C 706.238 827.608, 706.911 827.688, 724.282 822.981 C 751.126 815.707, 794.461 800.887, 805.796 795.104 C 808.043 793.958, 810.471 791.950, 811.191 790.643 C 811.911 789.335, 813.963 785.843, 815.752 782.883 C 821.556 773.273, 822.784 768.090, 829.506 724.794 C 840.082 656.669, 839.437 661.982, 837.653 657.711 C 836.160 654.140, 835.921 654.003, 831.301 654.079 C 828.660 654.122, 826.050 654.334, 825.500 654.550 M 830.500 910.234 C 813.793 923.774, 785.926 941.679, 757.513 957.131 C 743.106 964.965, 738.310 968, 740.334 968 C 741.879 968, 743.818 968.675, 744.643 969.500 C 745.468 970.325, 747.011 971, 748.071 971 C 750.642 971, 750.510 972.391, 747.750 974.368 C 744.281 976.853, 760.253 969.562, 772 963.299 C 784.825 956.460, 800.331 946.958, 813 938.174 C 824.105 930.474, 848.157 911.752, 850.135 909.268 C 850.990 908.194, 850.422 908.384, 848.616 909.776 L 845.733 911.998 842.116 909.846 C 840.127 908.662, 838.050 907.171, 837.500 906.533 C 836.770 905.685, 834.880 906.685, 830.500 910.234" stroke="none" fill="#dfba61" fill-rule="evenodd"/></svg>